# xmcd
#
# Track frame offsets:
#	150
#	13715
#	27522
#	39747
#	54595
#	67620
#	81267
#	93415
#	103612
#	114940
#
# Disc length: 1759 seconds
#
# Revision: 0
# Processed by: cddbd v1.4PL0 Copyright (c) Steve Scherf et al.
# Submitted via: EasyCDDAExtractor 4.6.0.1
#
DISCID=7606dd0a
DTITLE=Banda Arkangel R-15 - De Donde Es La Quebradita?
DYEAR=1900
DGENRE=Latin
TTITLE0=El Onceavo Mandamiento
TTITLE1=La Leona
TTITLE2=El Mujeriego
TTITLE3=No Me Puedo Resignar
TTITLE4=La Nicolasa
TTITLE5=De Donde Es la Quebradita
TTITLE6=Recuerdo de Amor
TTITLE7=Me Gusta Estar Contigo
TTITLE8=El Desprecio
TTITLE9=Un 10 de Mayo
EXTD=
EXTT0=
EXTT1=
EXTT2=
EXTT3=
EXTT4=
EXTT5=
EXTT6=
EXTT7=
EXTT8=
EXTT9=
PLAYORDER=
